<svg xmlns="http://www.w3.org/2000/svg" xmlns:xlink="http://www.w3.org/1999/xlink" viewBox="0 0 550 370"><defs><style>.cls-1,.cls-26,.cls-32,.cls-33,.cls-35,.cls-40{fill:none;}.cls-2{isolation:isolate;}.cls-3{fill:url(#linear-gradient);}.cls-4{clip-path:url(#clip-path);}.cls-5,.cls-6{opacity:0.34;mix-blend-mode:lighten;}.cls-5{fill:url(#linear-gradient-2);}.cls-6{fill:url(#linear-gradient-3);}.cls-7{opacity:0.55;fill:url(#linear-gradient-4);}.cls-8{mix-blend-mode:overlay;fill:url(#linear-gradient-5);}.cls-56,.cls-9{mix-blend-mode:soft-light;}.cls-10{clip-path:url(#clip-path-2);}.cls-11{fill:#ffe1ea;}.cls-12{fill:#6e60f9;}.cls-13{fill:#007cad;}.cls-14,.cls-15{fill:#d5d4f9;}.cls-15{opacity:0.45;}.cls-16{fill:url(#linear-gradient-6);}.cls-17{fill:url(#linear-gradient-7);}.cls-18{fill:url(#linear-gradient-8);}.cls-19{fill:#f4bdca;}.cls-20{fill:url(#linear-gradient-9);}.cls-21{fill:url(#linear-gradient-10);}.cls-22{fill:url(#linear-gradient-11);}.cls-23{fill:#9795f9;}.cls-24{fill:#36367f;}.cls-25{fill:url(#linear-gradient-12);}.cls-26{stroke:#e7eeec;}.cls-26,.cls-32,.cls-35,.cls-40{stroke-linecap:round;stroke-linejoin:round;}.cls-27{fill:url(#linear-gradient-13);}.cls-28{fill:#7acedc;}.cls-29{fill:url(#linear-gradient-14);}.cls-30{fill:url(#linear-gradient-15);}.cls-31{fill:url(#linear-gradient-16);}.cls-32{stroke:#6e60f5;}.cls-33{stroke:#d5d4f9;stroke-miterlimit:10;}.cls-34{fill:#f9fbfa;opacity:0.35;}.cls-35{stroke:#13aa52;}.cls-36{fill:#13aa52;}.cls-37{fill:url(#linear-gradient-17);}.cls-38{fill:url(#linear-gradient-18);}.cls-39{fill:url(#linear-gradient-19);}.cls-40{stroke:#136149;}.cls-41{fill:#a49437;}.cls-42{fill:#f7a76f;}.cls-43{fill:#1a567e;}.cls-44{clip-path:url(#clip-path-3);}.cls-45{fill:url(#linear-gradient-20);}.cls-46{fill:url(#linear-gradient-21);}.cls-47{fill:url(#linear-gradient-22);}.cls-48{fill:url(#linear-gradient-23);}.cls-49{fill:url(#linear-gradient-24);}.cls-50{fill:url(#linear-gradient-25);}.cls-51{fill:url(#linear-gradient-26);}.cls-52{fill:url(#linear-gradient-27);}.cls-53{fill:url(#linear-gradient-28);}.cls-54{fill:url(#linear-gradient-29);}.cls-55{fill:url(#linear-gradient-30);}.cls-56{fill:url(#linear-gradient-31);}</style><linearGradient id="linear-gradient" x1="163.77" y1="311.87" x2="298.58" y2="78.37" gradientUnits="userSpaceOnUse"><stop offset="0.05" stop-color="#f7a76f"/><stop offset="0.41" stop-color="#f5b6ad"/><stop offset="0.62" stop-color="#f4bdca"/><stop offset="1" stop-color="#ffe1ea"/></linearGradient><clipPath id="clip-path"><circle class="cls-1" cx="231.17" cy="195.12" r="134.79"/></clipPath><linearGradient id="linear-gradient-2" x1="344.13" y1="1182.75" x2="613.79" y2="1135.19" gradientTransform="matrix(1, 0, 0, -1, -121, 1419.57)" gradientUnits="userSpaceOnUse"><stop offset="0" stop-color="#ffe1ea"/><stop offset="0.23" stop-color="#ffe1ea" stop-opacity="0.99"/><stop offset="0.37" stop-color="#fee2eb" stop-opacity="0.96"/><stop offset="0.48" stop-color="#fce3eb" stop-opacity="0.9"/><stop offset="0.58" stop-color="#fae4ec" stop-opacity="0.82"/><stop offset="0.67" stop-color="#f7e6ed" stop-opacity="0.72"/><stop offset="0.75" stop-color="#f3e8ef" stop-opacity="0.6"/><stop offset="0.83" stop-color="#eeeaf1" stop-opacity="0.45"/><stop offset="0.9" stop-color="#e9edf3" stop-opacity="0.28"/><stop offset="0.97" stop-color="#e4f1f5" stop-opacity="0.09"/><stop offset="1" stop-color="#e1f2f6" stop-opacity="0"/></linearGradient><linearGradient id="linear-gradient-3" x1="-104.34" y1="1005.29" x2="173.14" y2="956.35" gradientTransform="matrix(-1, 0, 0, 1, 157.65, -799.15)" xlink:href="#linear-gradient-2"/><linearGradient id="linear-gradient-4" x1="299.23" y1="291.38" x2="260.02" y2="69.03" gradientUnits="userSpaceOnUse"><stop offset="0" stop-color="#fef2c8" stop-opacity="0"/><stop offset="0.43" stop-color="#fef2c8"/><stop offset="0.49" stop-color="#fef2c8" stop-opacity="0.99"/><stop offset="0.54" stop-color="#fef2c8" stop-opacity="0.94"/><stop offset="0.6" stop-color="#fef2c8" stop-opacity="0.87"/><stop offset="0.65" stop-color="#fef2c8" stop-opacity="0.76"/><stop offset="0.71" stop-color="#fef2c8" stop-opacity="0.62"/><stop offset="0.76" stop-color="#fef2c8" stop-opacity="0.46"/><stop offset="0.81" stop-color="#fef2c8" stop-opacity="0.26"/><stop offset="0.86" stop-color="#fef2c8" stop-opacity="0.04"/><stop offset="0.87" stop-color="#fef2c8" stop-opacity="0"/></linearGradient><linearGradient id="linear-gradient-5" x1="153.09" y1="88.68" x2="241.73" y2="332.22" gradientUnits="userSpaceOnUse"><stop offset="0.08" stop-color="#8f221b"/><stop offset="0.27" stop-color="#91271f" stop-opacity="0.98"/><stop offset="0.42" stop-color="#99352b" stop-opacity="0.91"/><stop offset="0.56" stop-color="#a64e3f" stop-opacity="0.79"/><stop offset="0.69" stop-color="#b9705c" stop-opacity="0.62"/><stop offset="0.82" stop-color="#d09d81" stop-opacity="0.41"/><stop offset="0.94" stop-color="#edd2ae" stop-opacity="0.15"/><stop offset="1" stop-color="#fef2c8" stop-opacity="0"/></linearGradient><clipPath id="clip-path-2"><circle class="cls-1" cx="-134.65" cy="524.06" r="135.54"/></clipPath><linearGradient id="linear-gradient-6" x1="179.84" y1="88.21" x2="197.26" y2="58.04" gradientTransform="matrix(0.59, 0.81, -0.81, 0.59, 249.18, -129.67)" gradientUnits="userSpaceOnUse"><stop offset="0" stop-color="#6e60f9"/><stop offset="0.32" stop-color="#7063f9"/><stop offset="0.56" stop-color="#786df9"/><stop offset="0.78" stop-color="#847df9"/><stop offset="0.98" stop-color="#9694f9"/><stop offset="0.99" stop-color="#9795f9"/></linearGradient><linearGradient id="linear-gradient-7" x1="61.01" y1="202.1" x2="71.72" y2="183.55" gradientUnits="userSpaceOnUse"><stop offset="0" stop-color="#6e60f9"/><stop offset="0.07" stop-color="#7f79f8"/><stop offset="0.18" stop-color="#949af6"/><stop offset="0.3" stop-color="#a6b5f4"/><stop offset="0.42" stop-color="#b4caf3"/><stop offset="0.57" stop-color="#bed9f3"/><stop offset="0.74" stop-color="#c3e1f2"/><stop offset="1" stop-color="#c5e4f2"/></linearGradient><linearGradient id="linear-gradient-8" x1="505.9" y1="62.57" x2="511.25" y2="53.29" xlink:href="#linear-gradient-7"/><linearGradient id="linear-gradient-9" x1="-2043.73" y1="-670.02" x2="-2130.56" y2="-820.42" gradientTransform="translate(2453.07 584.5) rotate(-9.56)" gradientUnits="userSpaceOnUse"><stop offset="0.01" stop-color="#9795f9"/><stop offset="0.02" stop-color="#9694f9"/><stop offset="0.22" stop-color="#847df9"/><stop offset="0.44" stop-color="#786df9"/><stop offset="0.68" stop-color="#7063f9"/><stop offset="1" stop-color="#6e60f9"/></linearGradient><linearGradient id="linear-gradient-10" x1="301.97" y1="300.36" x2="339.04" y2="256.18" gradientTransform="translate(50.67 -49.37) rotate(9.56)" gradientUnits="userSpaceOnUse"><stop offset="0" stop-color="#9795f9"/><stop offset="1" stop-color="#7acfdd"/></linearGradient><linearGradient id="linear-gradient-11" x1="229.12" y1="350.43" x2="265.16" y2="307.48" gradientTransform="translate(432.04 -38.61) rotate(63.62)" xlink:href="#linear-gradient-10"/><linearGradient id="linear-gradient-12" x1="5424.44" y1="-697.87" x2="5448.71" y2="-739.91" gradientTransform="matrix(-0.99, 0.17, 0.17, 0.99, 5669.11, -146.18)" gradientUnits="userSpaceOnUse"><stop offset="0" stop-color="#7acfdd"/><stop offset="0.26" stop-color="#7bccde"/><stop offset="0.49" stop-color="#7fc4e2" stop-opacity="0.98"/><stop offset="0.69" stop-color="#86b6e9" stop-opacity="0.96"/><stop offset="0.89" stop-color="#90a3f2" stop-opacity="0.92"/><stop offset="1" stop-color="#9795f9" stop-opacity="0.9"/></linearGradient><linearGradient id="linear-gradient-13" x1="5414.34" y1="-600.52" x2="5469.24" y2="-695.6" gradientTransform="matrix(-0.99, 0.17, 0.17, 0.99, 5669.11, -146.18)" xlink:href="#linear-gradient-10"/><linearGradient id="linear-gradient-14" x1="5414.74" y1="-704.93" x2="5458.05" y2="-704.93" gradientTransform="matrix(-0.99, 0.17, 0.17, 0.99, 5669.11, -146.18)" gradientUnits="userSpaceOnUse"><stop offset="0" stop-color="#c5e4f2"/><stop offset="0.59" stop-color="#e8f4fa" stop-opacity="0.4"/><stop offset="1" stop-color="#fff" stop-opacity="0"/></linearGradient><linearGradient id="linear-gradient-15" x1="5435.16" y1="-685.26" x2="5447.26" y2="-706.23" gradientTransform="matrix(-0.99, 0.17, 0.17, 0.99, 5669.11, -146.18)" gradientUnits="userSpaceOnUse"><stop offset="0" stop-color="#7acfdd"/><stop offset="0.13" stop-color="#80c3e3"/><stop offset="0.46" stop-color="#8daaef"/><stop offset="0.76" stop-color="#949af6"/><stop offset="1" stop-color="#9795f9"/></linearGradient><linearGradient id="linear-gradient-16" x1="5414.56" y1="-721.62" x2="5443.9" y2="-721.62" xlink:href="#linear-gradient-14"/><linearGradient id="linear-gradient-17" x1="215.77" y1="111.3" x2="221.19" y2="126.21" gradientTransform="translate(-7.37 6.14) rotate(-1.36)" xlink:href="#linear-gradient-9"/><linearGradient id="linear-gradient-18" x1="295.67" y1="283.41" x2="313.09" y2="253.25" gradientTransform="translate(479.29 -183.07) rotate(88.64)" xlink:href="#linear-gradient-9"/><linearGradient id="linear-gradient-19" x1="487" y1="1353.59" x2="519.24" y2="1409.42" gradientTransform="matrix(0.98, -0.18, -0.18, -0.98, 92.07, 1480.33)" xlink:href="#linear-gradient-7"/><clipPath id="clip-path-3"><circle class="cls-1" cx="444.92" cy="72.36" r="36.3"/></clipPath><linearGradient id="linear-gradient-20" x1="432.27" y1="51.7" x2="442.7" y2="33.64" gradientTransform="translate(97.96 321.85) rotate(-45)" gradientUnits="userSpaceOnUse"><stop offset="0.13" stop-color="#b9eacd"/><stop offset="0.29" stop-color="#c0e4d8"/><stop offset="0.7" stop-color="#cfd8f0"/><stop offset="0.95" stop-color="#d5d4f9"/></linearGradient><linearGradient id="linear-gradient-21" x1="443.41" y1="100.36" x2="453.83" y2="82.29" gradientTransform="translate(66.82 343.97) rotate(-45)" xlink:href="#linear-gradient-20"/><linearGradient id="linear-gradient-22" x1="476.3" y1="77.46" x2="486.73" y2="59.4" gradientTransform="translate(92.65 360.52) rotate(-45)" xlink:href="#linear-gradient-20"/><linearGradient id="linear-gradient-23" x1="465.46" y1="103.74" x2="475.89" y2="85.68" gradientTransform="translate(70.88 360.56) rotate(-45)" xlink:href="#linear-gradient-20"/><linearGradient id="linear-gradient-24" x1="406.45" y1="85.38" x2="416.88" y2="67.32" gradientTransform="translate(66.59 313.45) rotate(-45)" xlink:href="#linear-gradient-20"/><linearGradient id="linear-gradient-25" x1="466.51" y1="78.05" x2="471.03" y2="70.22" gradientTransform="translate(189.72 -309.76) rotate(45)" xlink:href="#linear-gradient-20"/><linearGradient id="linear-gradient-26" x1="426.54" y1="109.08" x2="431.07" y2="101.25" gradientTransform="translate(199.96 -272.41) rotate(45)" xlink:href="#linear-gradient-20"/><linearGradient id="linear-gradient-27" x1="441.91" y1="118.07" x2="451.09" y2="102.15" gradientTransform="translate(208.64 -283.47) rotate(45)" xlink:href="#linear-gradient-20"/><linearGradient id="linear-gradient-28" x1="410.8" y1="67.2" x2="422.95" y2="46.14" gradientTransform="translate(162.17 -278.18) rotate(45)" xlink:href="#linear-gradient-20"/><linearGradient id="linear-gradient-29" x1="448.39" y1="42" x2="457.58" y2="26.08" gradientTransform="translate(156.75 -310.34) rotate(45)" xlink:href="#linear-gradient-20"/><linearGradient id="linear-gradient-30" x1="435.63" y1="62.44" x2="440.16" y2="54.61" gradientTransform="translate(169.64 -292.5) rotate(45)" xlink:href="#linear-gradient-20"/><linearGradient id="linear-gradient-31" x1="421.42" y1="100.02" x2="459.5" y2="54.64" gradientUnits="userSpaceOnUse"><stop offset="0.13" stop-color="#0d324f"/><stop offset="0.43" stop-color="#143653" stop-opacity="0.97"/><stop offset="0.58" stop-color="#2b445f" stop-opacity="0.87"/><stop offset="0.71" stop-color="#535c74" stop-opacity="0.7"/><stop offset="0.82" stop-color="#8b7e92" stop-opacity="0.45"/><stop offset="0.92" stop-color="#d4aab9" stop-opacity="0.14"/><stop offset="0.95" stop-color="#f4bdca" stop-opacity="0"/></linearGradient></defs><g class="cls-2"><g id="BG"><circle class="cls-3" cx="231.17" cy="195.12" r="134.79"/><g class="cls-4"><path class="cls-5" d="M481.27,349.66H250.15c-22.19,0-40.19-15.76-40.22-35.25v0h0c0-19.51,18-35.33,40.22-35.33H400.24c15.35,0,27.8-10.94,27.8-24.43h0c0-13.5-12.41-24.45-27.76-24.47H297.19c-17.65,0-31.95-12.57-31.95-28.08h0c0-15.48,14.28-28,31.91-28H484"/><path class="cls-6" d="M-3.63,90H234.19c22.83,0,41.35,16.22,41.38,36.28v0h0c0,20.08-18.53,36.36-41.38,36.36H79.75C64,162.7,51.14,174,51.14,187.84h0C51.11,201.72,63.9,213,79.7,213H185.78c18.16,0,32.88,12.94,32.88,28.89h0c0,15.94-14.7,28.85-32.84,28.85H-6.44"/></g></g><g id="Astonaut_Stars" data-name="Astonaut &amp; Stars"><path class="cls-7" d="M357.16,189.82c0,45.69-28.22,85.14-69.06,103.53q3.82-2.53,7.42-5.34c32-20.62,52.93-55.36,52.93-94.75,0-63.3-54.16-114.61-121-114.61a126.72,126.72,0,0,0-42.05,7.12A126.16,126.16,0,0,1,236.2,75.22C303,75.22,357.16,126.52,357.16,189.82Z"/><path class="cls-8" d="M321.51,294A129.56,129.56,0,1,1,212,69,129.58,129.58,0,0,0,321.51,294Z"/><g class="cls-9"><g class="cls-10"><path class="cls-11" d="M-337.36,480.41C-282.06,443-165,452.76-101.54,439.75S54.59,337.29,54.59,337.29l22.76,34.15S54.69,474-160.09,478.78c-219.55,4.88-190.28,50.41-190.28,50.41Z"/></g></g><rect class="cls-12" x="279.86" y="74.54" width="17.56" height="3.97" transform="translate(140.44 -182.71) rotate(45.39)"/><path class="cls-13" d="M230.64,73.57a12.77,12.77,0,0,0-18.21,17.91"/><path class="cls-13" d="M252.28,95.58l-21.64-22L212.43,91.48l21.63,22h0l4.72,4.79a17.12,17.12,0,0,0,24.22.21l25.34-24.91-16.73-17Z"/><path class="cls-14" d="M288.35,93.59l5.21-5.12a3.15,3.15,0,0,0,0-4.45L281.28,71.5a3.13,3.13,0,0,0-4.44,0l-5.21,5.12Z"/><rect class="cls-15" x="253.95" y="96.74" width="23.82" height="4.48" transform="translate(381.67 357.94) rotate(-134.51)"/><rect class="cls-15" x="261.4" y="89.41" width="23.82" height="4.48" transform="translate(399.58 350.79) rotate(-134.51)"/><path class="cls-16" d="M302.76,80.42h0l.19-.19h0l6-5.95h0l7.64-7.53a2.47,2.47,0,0,0-1.58-4.3l2.71-2.67a2.58,2.58,0,0,0,.28-3.44,2.46,2.46,0,0,0-3.12-.58l1-1a2.58,2.58,0,0,0,.3-3.42,2.48,2.48,0,0,0-3.68-.21l-2,2a2.58,2.58,0,0,0,.3-3.42,2.48,2.48,0,0,0-3.68-.21l-8.12,8a4.78,4.78,0,0,1-6.74-.05h0l-5.78,5.71a6.36,6.36,0,0,0-.07,9l8,8.07A6,6,0,0,0,302.76,80.42Z"/><path class="cls-12" d="M297.42,61a7.93,7.93,0,0,0-2.61-2.27L297.7,56a5.11,5.11,0,0,0,.05-7.21l-.25-.25L285.75,59.82c-.08.06-.14.13-.22.2l-.22.21h0a7.93,7.93,0,1,0,12.1.8Z"/><polygon class="cls-17" points="66.36 180.46 68.97 190.22 78.73 192.83 68.97 195.43 66.36 205.19 63.76 195.43 54 192.83 63.76 190.22 66.36 180.46"/><polygon class="cls-18" points="508.57 51.75 509.88 56.63 514.76 57.93 509.88 59.23 508.57 64.11 507.27 59.23 502.39 57.93 507.27 56.63 508.57 51.75"/><polygon class="cls-19" points="63.78 42.47 65.08 47.35 69.97 48.66 65.08 49.96 63.78 54.84 62.48 49.96 57.6 48.66 62.48 47.35 63.78 42.47"/><polygon class="cls-19" points="402.89 174.73 404.89 182.21 412.37 184.21 404.89 186.2 402.89 193.68 400.9 186.2 393.42 184.21 400.9 182.21 402.89 174.73"/><path class="cls-20" d="M307,144.48l-23.54,4-1.79.3-112.17,18.9a33.54,33.54,0,0,0,38.64,27.5l79.1-13.33,13.61,80.82,33.07-5.58L316.05,150.92A7.85,7.85,0,0,0,307,144.48Z"/><rect class="cls-21" x="303.73" y="253.49" width="33.54" height="49.57" transform="translate(-41.77 57.1) rotate(-9.56)"/><path class="cls-14" d="M360.86,296.61l-52.78,8.89,12.2-10.64,17.54-16.35c10.73-1.81,20.84,5.06,22.58,15.35Z"/><circle class="cls-11" cx="318.74" cy="294.25" r="6.95"/><path class="cls-12" d="M231.6,137.48h16.94a0,0,0,0,1,0,0V253.05a0,0,0,0,1,0,0H215a0,0,0,0,1,0,0v-99A16.6,16.6,0,0,1,231.6,137.48Z" transform="translate(-45.54 317.52) rotate(-63.91)"/><path class="cls-12" d="M262.3,206.32h33.54a0,0,0,0,1,0,0V321.8a0,0,0,0,1,0,0H268.13A5.83,5.83,0,0,1,262.3,316V206.32A0,0,0,0,1,262.3,206.32Z" transform="translate(413.55 623.96) rotate(-153.91)"/><rect class="cls-22" x="222.36" y="312.18" width="49.57" height="33.54" transform="translate(-157.36 404.21) rotate(-63.62)"/><path class="cls-14" d="M269.06,367.48,221.11,343.7l16.11-1.45,23.8-2.94c9.76,4.83,13.91,16.33,9.28,25.68Z"/><circle class="cls-11" cx="236.34" cy="340.85" r="6.95"/><path class="cls-23" d="M197.79,31.52l5.7,26.35-8.47,5,2.46,14.58a6.43,6.43,0,0,1-5.28,7.41h0a6.43,6.43,0,0,1-7.41-5.28L177.27,35Z"/><rect class="cls-24" x="135.23" y="61.21" width="55.8" height="44.57" rx="11.03" transform="translate(218.37 -91.24) rotate(80.44)"/><path class="cls-25" d="M164.94,52.17c.05.28.1.56.16.84a24.76,24.76,0,0,0,11.4,16.23,19,19,0,0,0,15.29,3.59,23.07,23.07,0,0,0,18.48-16.92,21,21,0,0,0,.57-3l-28,4.71,2.82-3.9,16-22.09a40.82,40.82,0,0,0,1.45-4.25,24.83,24.83,0,0,0-38.18,24.84Z"/><path class="cls-26" d="M200.55,28.63A22.16,22.16,0,0,0,173.61,62"/><polygon class="cls-27" points="169.51 167.65 235.65 156.5 221.02 69.66 154.92 80.79 160.08 111.56 160.77 115.71 161.7 121.24 162.39 125.39 169.51 167.65"/><path class="cls-28" d="M179.52,71.56l25.95-4.37c4.25-.72,7.75-4.86,7-9.11h0l-43.06,4.71L173,68.18S175.27,72.27,179.52,71.56Z"/><path class="cls-29" d="M169.35,62.68,171,65.23l41.42-4.45a7.47,7.47,0,0,0,0-2.75Z"/><path class="cls-30" d="M174.56,77.5l31.61-5.32s-2.4.26-3.22-4.57l-30,.57A17.3,17.3,0,0,1,174.56,77.5Z"/><path class="cls-31" d="M182.84,57.57l28-4.71a23,23,0,0,0-9.17-21.28l-16,22.09Z"/><path class="cls-12" d="M177.69,59.18a5.15,5.15,0,0,0,.83,2.08l31.75-5.35c.26-1,.57-3.06.57-3.06l-28,4.72L203.4,29.28a1.39,1.39,0,0,0-.36-2c-.65-.43-1.44-.94-2-1.22L181.5,53.14l-3.88,5.36A5.05,5.05,0,0,0,177.69,59.18Z"/><path class="cls-12" d="M174.62,58.24a6.46,6.46,0,0,0,1,2.64,6.78,6.78,0,1,0,9.06-9.62,6.69,6.69,0,0,0-4.55-.84c-.25,0-.49.1-.73.16a6.79,6.79,0,0,0-4.92,6.8A6.11,6.11,0,0,0,174.62,58.24Z"/><path class="cls-32" d="M207.09,84.76l-.19-1.1A2,2,0,0,0,204.59,82h0A2,2,0,0,0,203,84.32l.18,1.1"/><path class="cls-32" d="M199,86.11l-.19-1.1a2,2,0,0,0-2.31-1.64h0a2,2,0,0,0-1.64,2.31l.18,1.1"/><path class="cls-32" d="M169.76,99.8l-3.67.62a2.9,2.9,0,0,1-3.34-2.37l-3.17-18.86a2.91,2.91,0,0,0-3.34-2.38l-17.08,2.88a3.87,3.87,0,0,1-4.45-3.16h0a3.86,3.86,0,0,1,3.17-4.45l3.26-.55"/><path class="cls-33" d="M212.34,87.51l1.92,11.42a5.64,5.64,0,0,1-4.62,6.5l-5.32.89a9.14,9.14,0,0,0-7.49,10.53l.45,2.66a5.64,5.64,0,0,1-4.63,6.5l-12.4,2.09a5.64,5.64,0,0,1-6.5-4.62l-4.83-28.66a3.59,3.59,0,0,1,2.94-4.13l36.35-6.12A3.58,3.58,0,0,1,212.34,87.51Z"/><rect class="cls-32" x="173.72" y="94.34" width="8.55" height="12.38" transform="translate(370.21 170.09) rotate(170.44)"/><rect class="cls-32" x="185.37" y="92.37" width="8.55" height="12.38" transform="matrix(-0.99, 0.17, -0.17, -0.99, 393.02, 164.26)"/><circle class="cls-32" cx="203.75" cy="96.19" r="6.19"/><path class="cls-34" d="M210.27,44.1l-23.83,8.52,15.27-21.09A23,23,0,0,1,210.27,44.1Z"/><path class="cls-13" d="M157,93.4a12.77,12.77,0,1,0-25.19,4.24"/><path class="cls-13" d="M162.13,123.83,157,93.4l-25.19,4.24,5.12,30.43h0l1.12,6.63a17.13,17.13,0,0,0,19.74,14.05l35-5.9-4-23.53Z"/><path class="cls-14" d="M190.86,143.2l7.2-1.22a3.15,3.15,0,0,0,2.58-3.62L197.72,121a3.15,3.15,0,0,0-3.62-2.58l-7.21,1.21Z"/><rect class="cls-15" x="135.51" y="114.45" width="14.18" height="9.05" transform="translate(-17.78 25.34) rotate(-9.56)"/><rect class="cls-15" x="157.43" y="132.49" width="23.82" height="4.48" transform="translate(64.61 324.09) rotate(-99.56)"/><rect class="cls-15" x="167.74" y="130.75" width="23.82" height="4.48" transform="translate(78.35 332.23) rotate(-99.56)"/><rect class="cls-13" x="143.16" y="81.78" width="12.8" height="11.56" transform="translate(-12.47 26.06) rotate(-9.56)"/></g><g id="HERO"><path class="cls-35" d="M135,334.62c-42.34,4-72.62-3-81.79-22.12-14.19-29.63,25.91-80.3,96-128.68"/><path class="cls-35" d="M334.5,93.22C421.21,65.62,491,64.83,505.77,95.76c19.74,41.21-65.58,123.14-190.56,183-58.56,28-115.43,46.26-161.38,53.47"/><circle class="cls-36" cx="139.24" cy="332.98" r="4.37"/><rect class="cls-12" x="192.32" y="126.98" width="17.56" height="3.97" transform="translate(294.52 -90.91) rotate(80.35)"/><path class="cls-37" d="M217.17,121.3a8.06,8.06,0,0,0-.84-3.36l3.93-.58a5.09,5.09,0,0,0,4.17-5.88l-.06-.36-16.07,2.49-.29,0-.3,0h0a7.93,7.93,0,1,0,9.46,7.59Z"/><path class="cls-38" d="M210.44,140.24h0l.27,0h0l8.34-1.42h0l10.58-1.8a2.54,2.54,0,0,0,2.14-2.24,2.47,2.47,0,0,0-1-2.18l3.74-.64a2.6,2.6,0,0,0,2.21-2.66,2.49,2.49,0,0,0-2.23-2.27l1.46-.25a2.57,2.57,0,0,0,2.2-2.63,2.47,2.47,0,0,0-2.89-2.28l-2.78.47a2.58,2.58,0,0,0,2.2-2.63,2.47,2.47,0,0,0-2.89-2.28l-11.25,1.91a4.76,4.76,0,0,1-5.49-3.9h0l-8,1.37a6.35,6.35,0,0,0-5.2,7.33l1.9,11.17A6,6,0,0,0,210.44,140.24Z"/><g id="Technology_Laptop_back_1" data-name="Technology_Laptop back 1"><g id="Titles"><polygon class="cls-39" points="298.69 15.86 363.36 4.33 391.66 47.39 325.46 59.18 298.69 15.86"/><rect class="cls-14" x="303.49" y="55.18" width="89.24" height="4.41" transform="translate(-4.67 61.96) rotate(-10.1)"/><circle class="cls-40" cx="347.78" cy="32.4" r="5.12"/></g></g><circle class="cls-41" cx="486.36" cy="159.11" r="9.99"/><circle class="cls-42" cx="95.49" cy="75.04" r="4.04"/><circle class="cls-42" cx="57.61" cy="118.75" r="5.75"/><circle class="cls-43" cx="444.92" cy="72.36" r="36.3"/><g class="cls-44"><rect class="cls-45" x="408.34" y="38.78" width="58.29" height="7.78" rx="3.89" transform="translate(158.31 -296.85) rotate(45)"/><rect class="cls-46" x="419.48" y="87.44" width="58.29" height="7.78" rx="3.89" transform="translate(195.97 -290.47) rotate(45)"/><rect class="cls-47" x="452.37" y="64.54" width="58.29" height="7.78" rx="3.89" transform="translate(189.42 -320.44) rotate(45)"/><rect class="cls-48" x="441.53" y="90.82" width="58.29" height="7.78" rx="3.89" transform="translate(204.83 -305.08) rotate(45)"/><rect class="cls-49" x="382.52" y="72.46" width="58.29" height="7.78" rx="3.89" transform="translate(174.56 -268.73) rotate(45)"/><ellipse class="cls-50" cx="468.77" cy="74.14" rx="4.52" ry="4.59" transform="translate(84.88 353.18) rotate(-45)"/><ellipse class="cls-51" cx="428.81" cy="105.17" rx="4.52" ry="4.59" transform="translate(51.23 334.01) rotate(-45)"/><ellipse class="cls-52" cx="446.5" cy="110.11" rx="9.14" ry="9.83" transform="translate(52.92 347.97) rotate(-45)"/><ellipse class="cls-53" cx="416.87" cy="56.67" rx="12.09" ry="13.01" transform="translate(82.03 311.37) rotate(-45)"/><ellipse class="cls-54" cx="452.98" cy="34.04" rx="9.14" ry="9.83" transform="translate(108.61 330.28) rotate(-45)"/><ellipse class="cls-55" cx="437.89" cy="58.52" rx="4.52" ry="4.59" transform="translate(86.87 326.78) rotate(-45)"/></g><path class="cls-56" d="M468.79,99.73a36.32,36.32,0,1,1-30.7-63.06,36.32,36.32,0,0,0,23.84,63.71A36.93,36.93,0,0,0,468.79,99.73Z"/></g></g></svg>