<svg xmlns="http://www.w3.org/2000/svg" xmlns:xlink="http://www.w3.org/1999/xlink" viewBox="0 0 550 370"><defs><style>.cls-1,.cls-10,.cls-12,.cls-21,.cls-39{fill:none;}.cls-2{isolation:isolate;}.cls-3{fill:url(#linear-gradient);}.cls-4{fill:url(#linear-gradient-2);}.cls-5{opacity:0.34;mix-blend-mode:lighten;fill:url(#linear-gradient-3);}.cls-6{fill:url(#linear-gradient-4);}.cls-7{fill:url(#linear-gradient-5);}.cls-8{fill:url(#linear-gradient-6);}.cls-9{fill:#f4bdca;}.cls-10{stroke:#83dba7;}.cls-10,.cls-12,.cls-21,.cls-39{stroke-linecap:round;stroke-linejoin:round;}.cls-11{fill:#f7a76f;}.cls-12{stroke:#b9eacd;}.cls-13{fill:#b9eacd;}.cls-14{fill:#a49437;}.cls-15{clip-path:url(#clip-path);}.cls-16{fill:url(#linear-gradient-7);}.cls-17{fill:url(#linear-gradient-8);}.cls-18{fill:url(#linear-gradient-9);}.cls-19{fill:url(#linear-gradient-10);}.cls-20{fill:url(#linear-gradient-11);}.cls-21{stroke:#0ad05b;}.cls-22{fill:#0ad05b;}.cls-23{mix-blend-mode:overlay;fill:url(#linear-gradient-12);}.cls-24{opacity:0.55;fill:url(#linear-gradient-13);}.cls-25{fill:#1a567e;}.cls-26{fill:url(#linear-gradient-14);}.cls-27{fill:url(#linear-gradient-15);}.cls-28{fill:url(#linear-gradient-16);}.cls-29{fill:url(#linear-gradient-17);}.cls-30{fill:url(#linear-gradient-18);}.cls-31{fill:url(#linear-gradient-19);}.cls-32{fill:url(#linear-gradient-20);}.cls-33{fill:url(#linear-gradient-21);}.cls-34{fill:url(#linear-gradient-22);}.cls-35{fill:url(#linear-gradient-23);}.cls-36{fill:url(#linear-gradient-24);}.cls-37{mix-blend-mode:soft-light;fill:url(#linear-gradient-25);}.cls-38{fill:#2f9fc5;}.cls-39{stroke:#2f9fc5;}</style><linearGradient id="linear-gradient" x1="1586.23" y1="1256.83" x2="1800.71" y2="1218.97" gradientTransform="matrix(-1, 0, 0, 1, 1796.54, -1154.58)" gradientUnits="userSpaceOnUse"><stop offset="0" stop-color="#ffe1ea"/><stop offset="0.22" stop-color="#ffe1ea" stop-opacity="0.99"/><stop offset="0.33" stop-color="#fee2ea" stop-opacity="0.96"/><stop offset="0.41" stop-color="#fce2eb" stop-opacity="0.91"/><stop offset="0.47" stop-color="#fae4ec" stop-opacity="0.84"/><stop offset="0.53" stop-color="#f7e5ed" stop-opacity="0.75"/><stop offset="0.58" stop-color="#f4e7ee" stop-opacity="0.63"/><stop offset="0.63" stop-color="#f0eaf0" stop-opacity="0.5"/><stop offset="0.68" stop-color="#ebecf2" stop-opacity="0.34"/><stop offset="0.72" stop-color="#e6eff4" stop-opacity="0.16"/><stop offset="0.75" stop-color="#e1f2f6" stop-opacity="0"/><stop offset="1" stop-color="#e1f2f6" stop-opacity="0"/></linearGradient><linearGradient id="linear-gradient-2" x1="273.67" y1="349.61" x2="304.6" y2="296.04" gradientUnits="userSpaceOnUse"><stop offset="0" stop-color="#6e60f9"/><stop offset="0.07" stop-color="#7f79f8"/><stop offset="0.18" stop-color="#949af6"/><stop offset="0.3" stop-color="#a6b5f4"/><stop offset="0.42" stop-color="#b4caf3"/><stop offset="0.57" stop-color="#bed9f3"/><stop offset="0.74" stop-color="#c3e1f2"/><stop offset="1" stop-color="#c5e4f2"/></linearGradient><linearGradient id="linear-gradient-3" x1="430.01" y1="1979.87" x2="673.17" y2="1936.98" gradientTransform="matrix(1, 0, 0, -1, -121, 2241.77)" gradientUnits="userSpaceOnUse"><stop offset="0" stop-color="#ffe1ea"/><stop offset="0.23" stop-color="#ffe1ea" stop-opacity="0.99"/><stop offset="0.37" stop-color="#fee2eb" stop-opacity="0.96"/><stop offset="0.48" stop-color="#fce3eb" stop-opacity="0.9"/><stop offset="0.58" stop-color="#fae4ec" stop-opacity="0.82"/><stop offset="0.67" stop-color="#f7e6ed" stop-opacity="0.72"/><stop offset="0.75" stop-color="#f3e8ef" stop-opacity="0.6"/><stop offset="0.83" stop-color="#eeeaf1" stop-opacity="0.45"/><stop offset="0.9" stop-color="#e9edf3" stop-opacity="0.28"/><stop offset="0.97" stop-color="#e4f1f5" stop-opacity="0.09"/><stop offset="1" stop-color="#e1f2f6" stop-opacity="0"/></linearGradient><linearGradient id="linear-gradient-4" x1="517.7" y1="53.13" x2="529.61" y2="53.13" xlink:href="#linear-gradient-2"/><linearGradient id="linear-gradient-5" x1="216.62" y1="308.94" x2="228.53" y2="308.94" xlink:href="#linear-gradient-2"/><linearGradient id="linear-gradient-6" x1="26.09" y1="153.96" x2="38" y2="153.96" xlink:href="#linear-gradient-2"/><clipPath id="clip-path"><circle class="cls-1" cx="228.89" cy="128" r="106.07"/></clipPath><linearGradient id="linear-gradient-7" x1="51.59" y1="86.37" x2="397.76" y2="25.33" gradientUnits="userSpaceOnUse"><stop offset="0.05" stop-color="#f7a76f"/><stop offset="0.1" stop-color="#f8b184"/><stop offset="0.2" stop-color="#fac0a3"/><stop offset="0.31" stop-color="#fcccbd"/><stop offset="0.42" stop-color="#fdd5d1"/><stop offset="0.56" stop-color="#fedcdf"/><stop offset="0.72" stop-color="#ffe0e8"/><stop offset="1" stop-color="#ffe1ea"/></linearGradient><linearGradient id="linear-gradient-8" x1="-23.51" y1="50.73" x2="322.67" y2="-10.31" xlink:href="#linear-gradient-7"/><linearGradient id="linear-gradient-9" x1="92.3" y1="181.45" x2="391.59" y2="128.68" xlink:href="#linear-gradient-7"/><linearGradient id="linear-gradient-10" x1="124.12" y1="237.46" x2="423.41" y2="184.68" xlink:href="#linear-gradient-7"/><linearGradient id="linear-gradient-11" x1="92.45" y1="134.78" x2="395.52" y2="81.35" xlink:href="#linear-gradient-7"/><linearGradient id="linear-gradient-12" x1="122.82" y1="128.95" x2="298.55" y2="128.95" gradientUnits="userSpaceOnUse"><stop offset="0" stop-color="#fef2c8" stop-opacity="0"/><stop offset="0.03" stop-color="#edd2ae" stop-opacity="0.15"/><stop offset="0.08" stop-color="#d09d81" stop-opacity="0.41"/><stop offset="0.14" stop-color="#b9705c" stop-opacity="0.62"/><stop offset="0.2" stop-color="#a64e3f" stop-opacity="0.79"/><stop offset="0.27" stop-color="#99352b" stop-opacity="0.91"/><stop offset="0.34" stop-color="#91271f" stop-opacity="0.98"/><stop offset="0.43" stop-color="#8f221b"/><stop offset="0.52" stop-color="#922720" stop-opacity="0.97"/><stop offset="0.61" stop-color="#9b382d" stop-opacity="0.89"/><stop offset="0.69" stop-color="#a95444" stop-opacity="0.76"/><stop offset="0.78" stop-color="#be7a65" stop-opacity="0.58"/><stop offset="0.86" stop-color="#d9ac8e" stop-opacity="0.33"/><stop offset="0.94" stop-color="#f9e9c0" stop-opacity="0.04"/><stop offset="0.95" stop-color="#fef2c8" stop-opacity="0"/></linearGradient><linearGradient id="linear-gradient-13" x1="221.02" y1="131.06" x2="316.89" y2="75.71" gradientUnits="userSpaceOnUse"><stop offset="0" stop-color="#fef2c8" stop-opacity="0"/><stop offset="0.43" stop-color="#fef2c8"/><stop offset="0.49" stop-color="#fef2c8" stop-opacity="0.99"/><stop offset="0.54" stop-color="#fef2c8" stop-opacity="0.94"/><stop offset="0.6" stop-color="#fef2c8" stop-opacity="0.87"/><stop offset="0.65" stop-color="#fef2c8" stop-opacity="0.76"/><stop offset="0.71" stop-color="#fef2c8" stop-opacity="0.62"/><stop offset="0.76" stop-color="#fef2c8" stop-opacity="0.46"/><stop offset="0.81" stop-color="#fef2c8" stop-opacity="0.26"/><stop offset="0.86" stop-color="#fef2c8" stop-opacity="0.04"/><stop offset="0.87" stop-color="#fef2c8" stop-opacity="0"/></linearGradient><linearGradient id="linear-gradient-14" x1="399.87" y1="177.4" x2="414.14" y2="152.68" gradientUnits="userSpaceOnUse"><stop offset="0.13" stop-color="#b9eacd"/><stop offset="0.29" stop-color="#c0e4d8"/><stop offset="0.7" stop-color="#cfd8f0"/><stop offset="0.95" stop-color="#d5d4f9"/></linearGradient><linearGradient id="linear-gradient-15" x1="400.25" y1="251.63" x2="417.64" y2="221.52" xlink:href="#linear-gradient-14"/><linearGradient id="linear-gradient-16" x1="450.7" y1="194.91" x2="464.77" y2="170.55" xlink:href="#linear-gradient-14"/><linearGradient id="linear-gradient-17" x1="431.06" y1="243.66" x2="444.85" y2="219.79" xlink:href="#linear-gradient-14"/><linearGradient id="linear-gradient-18" x1="353.49" y1="241.3" x2="368.62" y2="215.09" xlink:href="#linear-gradient-14"/><linearGradient id="linear-gradient-19" x1="448.03" y1="217.49" x2="456.47" y2="202.87" gradientTransform="translate(281.08 -258.23) rotate(45)" xlink:href="#linear-gradient-14"/><linearGradient id="linear-gradient-20" x1="377.74" y1="267.8" x2="381.81" y2="260.75" xlink:href="#linear-gradient-14"/><linearGradient id="linear-gradient-21" x1="405.21" y1="279.98" x2="416.3" y2="260.77" xlink:href="#linear-gradient-14"/><linearGradient id="linear-gradient-22" x1="351.13" y1="201.32" x2="373.83" y2="162.02" xlink:href="#linear-gradient-14"/><linearGradient id="linear-gradient-23" x1="416.56" y1="151.54" x2="424.2" y2="138.3" xlink:href="#linear-gradient-14"/><linearGradient id="linear-gradient-24" x1="390.4" y1="188.35" x2="398.84" y2="173.73" gradientTransform="translate(243.59 -226.01) rotate(45)" xlink:href="#linear-gradient-14"/><linearGradient id="linear-gradient-25" x1="363.87" y1="258.5" x2="434.95" y2="173.78" gradientUnits="userSpaceOnUse"><stop offset="0.13" stop-color="#0d324f"/><stop offset="0.43" stop-color="#143653" stop-opacity="0.97"/><stop offset="0.58" stop-color="#2b445f" stop-opacity="0.87"/><stop offset="0.71" stop-color="#535c74" stop-opacity="0.7"/><stop offset="0.82" stop-color="#8b7e92" stop-opacity="0.45"/><stop offset="0.92" stop-color="#d4aab9" stop-opacity="0.14"/><stop offset="0.95" stop-color="#f4bdca" stop-opacity="0"/></linearGradient></defs><g class="cls-2"><g id="BG"><path class="cls-3" d="M6.13,6h184.4a30.84,30.84,0,0,1,30.84,30.84h0A30.84,30.84,0,0,1,190.53,67.7H75.42A21.3,21.3,0,0,0,54.24,89h0a21.33,21.33,0,0,0,21.34,21.34h78.88a24.35,24.35,0,0,1,24.35,24.35h0a24.35,24.35,0,0,1-24.35,24.34H4.06"/><path class="cls-4" d="M332.53,329.43a1.94,1.94,0,0,0-1.94,1.94,2.58,2.58,0,0,0,0,.39l-4.84,2.18a1.92,1.92,0,0,0-3.24.26l-3.71-1v-.09a1.93,1.93,0,0,0-3.24-1.42l-10.85-7.47a1.94,1.94,0,0,0-1.79-2.66,1.74,1.74,0,0,0-.56.1L290.71,301a1.91,1.91,0,0,0,.63-1.43,2.11,2.11,0,0,0,0-.26l7-2.67a1.94,1.94,0,1,0-.32-1.07,1.24,1.24,0,0,0,0,.27l-7,2.67a1.91,1.91,0,0,0-1.61-.87,2,2,0,0,0-1.1.34l-6.78-6.25a1.88,1.88,0,0,0,.27-1,1.94,1.94,0,1,0-1.94,1.94,2,2,0,0,0,1.1-.34l6.78,6.25a1.88,1.88,0,0,0-.27,1,1.93,1.93,0,0,0,.07.49l-8.74,4.54a1.92,1.92,0,0,0-3.4,1.16l-5.23,1a1.93,1.93,0,0,0-3.72.74,1.53,1.53,0,0,0,0,.3l-6,2.35a1.92,1.92,0,0,0-1.6-.85,1.84,1.84,0,0,0-.47.07l-3.63-7.13a1.93,1.93,0,1,0-1.24.45,1.86,1.86,0,0,0,.48-.06l3.63,7.13a1.89,1.89,0,0,0-.57,2.16L250,316.62a1.93,1.93,0,0,0-3.27,1.4,1.94,1.94,0,0,0,3.87,0,2,2,0,0,0-.13-.69l7.14-4.73a1.88,1.88,0,0,0,1.33.54,2,2,0,0,0,.61-.1l6.94,11.59a1.93,1.93,0,0,0,.62,3.19l-1.69,10.84a1.93,1.93,0,1,0,1.44,3.33l15.72,10.82a1.89,1.89,0,0,0-.14.72,1.94,1.94,0,1,0,1.94-1.94,1.91,1.91,0,0,0-1.31.52L267.31,341.3a2,2,0,0,0,.14-.72,1.93,1.93,0,0,0-1.23-1.8L267.91,328a1.94,1.94,0,0,0,1.31-.64l9.93,5.52a1.91,1.91,0,0,0-.09.54A1.93,1.93,0,0,0,281,335.3a2.2,2.2,0,0,0,.58-.09l8.11,13.84a1.91,1.91,0,0,0-.62,1.41,1.94,1.94,0,1,0,1.94-1.94,1.86,1.86,0,0,0-.58.1l-8.11-13.84a2,2,0,0,0,.61-1.41,1.93,1.93,0,0,0-3.37-1.29l-9.93-5.51a2,2,0,0,0,.09-.54,1.94,1.94,0,0,0-1.94-1.94,1.73,1.73,0,0,0-.6.11l-6.94-11.59a1.94,1.94,0,0,0,.6-1.4,1.53,1.53,0,0,0,0-.3l6-2.36a1.93,1.93,0,0,0,3.53-1l5.23-.94a1.94,1.94,0,0,0,3.72-.75,2,2,0,0,0-.07-.49l8.75-4.54a1.9,1.9,0,0,0,1.47.69,2,2,0,0,0,.55-.09l11.7,20.62a1.93,1.93,0,0,0,1.22,3.36l2.59,14.18a1.94,1.94,0,1,0,.84-.15l-2.59-14.18a2.17,2.17,0,0,0,.55-.36l10.84,7.47a2.19,2.19,0,0,0-.14.72,1.93,1.93,0,0,0,3.64.91l3.71,1v.08a1.94,1.94,0,1,0,3.87,0,2.33,2.33,0,0,0,0-.38l4.84-2.19a1.93,1.93,0,0,0,3.47-1.16A1.93,1.93,0,0,0,332.53,329.43Z"/><path class="cls-5" d="M541.78,363.65H333.38c-20,0-36.24-14.21-36.26-31.79v0h0c0-17.6,16.23-31.86,36.26-31.86H468.71c13.85,0,25.08-9.86,25.08-22h0c0-12.17-11.19-22-25-22.06H375.8c-15.91,0-28.81-11.34-28.81-25.32h0c0-14,12.88-25.28,28.77-25.28H544.24"/></g><g id="Astonaut_Stars" data-name="Astonaut &amp; Stars"><polygon class="cls-6" points="523.65 47.18 524.91 51.88 529.61 53.13 524.91 54.38 523.65 59.09 522.4 54.38 517.7 53.13 522.4 51.88 523.65 47.18"/><polygon class="cls-7" points="222.57 302.98 223.83 307.68 228.53 308.94 223.83 310.19 222.57 314.89 221.32 310.19 216.62 308.94 221.32 307.68 222.57 302.98"/><polygon class="cls-8" points="32.04 148 33.3 152.71 38 153.96 33.3 155.21 32.04 159.91 30.79 155.21 26.09 153.96 30.79 152.71 32.04 148"/><polygon class="cls-9" points="86.41 28.35 90.08 42.11 103.84 45.77 90.08 49.44 86.41 63.2 82.74 49.44 68.98 45.77 82.74 42.11 86.41 28.35"/><polygon class="cls-9" points="373.5 316.53 375.72 324.86 384.04 327.08 375.72 329.3 373.5 337.63 371.28 329.3 362.95 327.08 371.28 324.86 373.5 316.53"/><polygon class="cls-9" points="498.55 272.46 500.47 279.66 507.67 281.58 500.47 283.5 498.55 290.71 496.63 283.5 489.43 281.58 496.63 279.66 498.55 272.46"/></g><g id="HERO"><ellipse class="cls-10" cx="252.65" cy="161.42" rx="208.39" ry="52.62" transform="translate(-44.67 122.82) rotate(-25.18)"/><ellipse class="cls-10" cx="257.61" cy="167.75" rx="232.7" ry="70.42" transform="translate(-46.89 125.53) rotate(-25.18)"/><circle class="cls-11" cx="228.89" cy="128" r="106.07"/><path class="cls-12" d="M111.12,301.8c-42.34,4-72.63-3-81.8-22.12-14.19-29.63,25.91-80.3,96-128.68"/><path class="cls-12" d="M310.64,60.4C397.35,32.8,467.11,32,481.91,62.94c19.74,41.21-65.58,123.14-190.56,183C232.79,274,175.92,292.19,130,299.4"/><circle class="cls-13" cx="116.02" cy="301.22" r="4.37"/><circle class="cls-14" cx="44.41" cy="293.02" r="9.99"/><circle class="cls-14" cx="332.6" cy="53.17" r="5.13"/><circle class="cls-11" cx="279.93" cy="234.57" r="4.04"/><circle class="cls-11" cx="416.44" cy="49.59" r="5.75"/><g class="cls-15"><path class="cls-16" d="M70.25,93.84C113.53,64.57,205.17,72.2,254.8,62S377-18.16,377-18.16L394.81,8.57S377.07,88.83,209,92.57C37.16,96.39,60.07,132,60.07,132Z"/><path class="cls-17" d="M-4.84,58.2C38.44,28.93,130.07,36.57,179.71,26.38S301.9-53.8,301.9-53.8l17.82,26.73S302,53.2,133.89,56.93C-37.93,60.75-15,96.39-15,96.39Z"/><path class="cls-18" d="M91.89,179.12c49.64-19.1,56-47.1,133.64-38.19s112-5.09,160.37-44.54v44.54s-33.39,44.25-166.73,22.91c-63.64-10.18-119.64,49.64-119.64,49.64Z"/><path class="cls-19" d="M123.71,235.12c49.64-19.09,56-47.1,133.64-38.19s112-5.09,160.37-44.54v44.54S384.33,241.18,251,219.84c-63.64-10.18-119.64,49.64-119.64,49.64Z"/><path class="cls-20" d="M391,55.66c-56,56-168,50.91-211.28,48.36-67.05-3.94-85.27,42-85.27,42l5.09,14s15.27-42,156.55-36.91S391,55.66,391,55.66Z"/></g><path class="cls-21" d="M388,113.11c15.77-13.76,23.5-25.06,20.31-31.74-5.1-10.65-36.81-7-80.9,7.25"/><path class="cls-21" d="M137.73,182.25c-30.2,21.44-47,39.76-42.54,49.07,5.28,11,39,6.74,85.53-8.78a760.76,760.76,0,0,0,85.85-35.25q10.06-4.83,19.7-9.74l12.29-6.39c11.91-6.33,23.18-12.69,33.63-19a486.39,486.39,0,0,0,41.29-27.4"/><circle class="cls-22" cx="384.52" cy="116.52" r="4.79"/><path class="cls-23" d="M298.55,208A106.08,106.08,0,1,1,208.9,23.82,106.09,106.09,0,0,0,298.55,208Z"/><path class="cls-24" d="M332.11,127.79c0,40.07-24.75,74.66-60.56,90.78q3.36-2.22,6.51-4.68c28-18.08,46.41-48.54,46.41-83.09C324.47,75.3,277,30.31,218.4,30.31a111,111,0,0,0-36.87,6.24A110.57,110.57,0,0,1,226,27.29C284.62,27.29,332.11,72.28,332.11,127.79Z"/><circle class="cls-25" cx="407.73" cy="206.87" r="67.75"/><path class="cls-26" d="M432.32,189.92a7.28,7.28,0,0,1-10.27,0l-44-44a67.17,67.17,0,0,1,15.26-5.28l39,39A7.27,7.27,0,0,1,432.32,189.92Z"/><path class="cls-27" d="M445.66,263a66.18,66.18,0,0,1-13.48,7.05l-56-56a7.26,7.26,0,1,1,10.27-10.27Z"/><path class="cls-28" d="M475.43,209.19l-37.86-37.86a7.26,7.26,0,1,1,10.27-10.27l24.07,24.07A67.4,67.4,0,0,1,475.43,209.19Z"/><path class="cls-29" d="M463.23,245.75a68.53,68.53,0,0,1-7.59,9c-.66.66-1.32,1.3-2,1.91l-36.3-36.3a7.26,7.26,0,0,1,10.27-10.27Z"/><path class="cls-30" d="M384.13,252.77a7.25,7.25,0,0,1-10.27,0L341.3,220.22h0a67.92,67.92,0,0,1-.85-21.38l43.68,43.68A7.26,7.26,0,0,1,384.13,252.77Z"/><ellipse class="cls-31" cx="452.25" cy="210.18" rx="8.43" ry="8.56" transform="translate(-16.16 381.35) rotate(-45)"/><path class="cls-32" d="M385.69,271a67.21,67.21,0,0,1-15.22-7.48,7.92,7.92,0,0,1,1.13-1.42,8.58,8.58,0,0,1,14.09,8.9Z"/><path class="cls-33" d="M427.07,271.81a68,68,0,0,1-33.84,1.25,16.11,16.11,0,0,1,4.48-8.7c6.66-6.67,17.87-6.26,25,.91A19.41,19.41,0,0,1,427.07,271.81Z"/><path class="cls-34" d="M372.55,194.74c-8.33,8.34-22,8.31-31.52.26a67.37,67.37,0,0,1,18.79-36c1-1,2.08-2,3.16-3h0a25.67,25.67,0,0,1,8.35,5.6C380.83,171.1,381.37,185.93,372.55,194.74Z"/><path class="cls-35" d="M437.63,146.05a15.26,15.26,0,0,1-1.87,2.26c-6.66,6.66-17.87,6.25-25-.91a19.28,19.28,0,0,1-4.92-8.25A67.76,67.76,0,0,1,437.63,146.05Z"/><ellipse class="cls-36" cx="394.62" cy="181.04" rx="8.43" ry="8.56" transform="translate(-12.43 332.06) rotate(-45)"/><path class="cls-37" d="M452.28,258A67.79,67.79,0,1,1,395,140.25,67.8,67.8,0,0,0,452.28,258Z"/><path class="cls-38" d="M99.34,77.67a4.37,4.37,0,1,1,5,3.63,4.37,4.37,0,0,1-5-3.63"/><path class="cls-39" d="M473.81,222c19.07,18,27.95,34.13,23.39,46.07C484.56,301.12,373.44,289.42,249,241.9q-9.83-3.77-19.36-7.65"/><path class="cls-39" d="M114.37,77.56c46.3,2.76,111.3,18.11,180.4,44.5,25.41,9.71,49.42,20.15,71.41,30.92"/><path class="cls-39" d="M148.85,196.12c-69-37.74-111.16-76.94-102.28-100.2,4.81-12.59,23.88-18.69,52.51-18.81"/></g></g></svg>